<svg width="29" height="29" viewBox="0 0 29 29" fill="none" xmlns="http://www.w3.org/2000/svg">
<path fill-rule="evenodd" clip-rule="evenodd" d="M14.5 27C7.59644 27 2 21.4036 2 14.5C2 7.59644 7.59644 2 14.5 2C21.4036 2 27 7.59644 27 14.5C27 21.4036 21.4036 27 14.5 27ZM0 14.5C0 6.49187 6.49187 0 14.5 0C22.5081 0 29 6.49187 29 14.5C29 22.5081 22.5081 29 14.5 29C6.49187 29 0 22.5081 0 14.5ZM9.0009 18.8995L13.0005 14.8999L9 10.8994L10.4142 9.4852L14.4147 13.4857L18.9004 9L20.3146 10.4142L15.8289 14.8999L20.3137 19.3847L18.8995 20.7989L14.4147 16.3141L10.4151 20.3137L9.0009 18.8995Z" fill="white"/>
</svg>
